<?xml version="1.0" encoding="utf-8"?>
<!-- Generator: Adobe Illustrator 24.3.0, SVG Export Plug-In . SVG Version: 6.00 Build 0)  -->
<svg version="1.1" id="Capa_1" xmlns="http://www.w3.org/2000/svg" xmlns:xlink="http://www.w3.org/1999/xlink" x="0px" y="0px"
	 viewBox="0 0 399.2 468" style="enable-background:new 0 0 399.2 468;" xml:space="preserve">
<style type="text/css">
	.st0{fill:#111111;}
</style>
<g id="Layer_3">
	<path class="st0" d="M335.7,393.6H63.5C28.5,393.6,0,365.2,0,330.1V166.1c0-35,28.4-63.5,63.5-63.5h36c3.9,0,7,3.1,7,7s-3.1,7-7,7
		h-36c-27.3,0-49.5,22.2-49.5,49.5v164.1c0,27.3,22.2,49.5,49.5,49.5h272.2c27.3,0,49.5-22.2,49.5-49.5V166.1
		c0-27.3-22.2-49.5-49.5-49.5h-33.1c-3.9,0-7-3.1-7-7s3.1-7,7-7h33.1c35,0,63.5,28.4,63.5,63.5v164.1
		C399.2,365.2,370.7,393.6,335.7,393.6z"/>
	<path class="st0" d="M392.2,337.1H7c-3.9,0-7-3.1-7-7s3.1-7,7-7h385.2c3.9,0,7,3.1,7,7S396.1,337.1,392.2,337.1L392.2,337.1z"/>
	<path class="st0" d="M298,468H106.5c-3.9,0-7-3.1-7-7c0-1.3,0.3-2.5,1-3.6l45-74.3c2-3.3,6.3-4.4,9.6-2.4s4.4,6.3,2.4,9.6
		L118.9,454h167.2l-34.9-64c-1.8-3.4-0.5-7.7,3-9.4c3.3-1.7,7.5-0.5,9.3,2.7l40.5,74.3c1.9,3.4,0.6,7.6-2.8,9.5
		C300.3,467.7,299.2,468,298,468z"/>
	<path class="st0" d="M199.7,232.3c-16.6,0-30-13.4-30-30l0,0l0,0v-19.6c0-3.9,3.1-7,7-7s7,3.1,7,7v19.6c0,8.8,7.2,16,16,16
		s16-7.2,16-16v-19.6c0-3.9,3.1-7,7-7s7,3.1,7,7v19.6C229.7,218.9,216.3,232.3,199.7,232.3L199.7,232.3z"/>
	<path class="st0" d="M198.7,189.7c-34.4,0-62.3-27.9-62.3-62.4v-26.1c0-34.4,27.9-62.3,62.3-62.3s62.3,27.9,62.3,62.3v26.1
		C261.1,161.7,233.2,189.6,198.7,189.7z M198.7,52.8c-26.7,0-48.3,21.7-48.3,48.3v26.1c0,26.7,21.6,48.3,48.3,48.3
		s48.3-21.6,48.3-48.3v-26.1C247,74.5,225.4,52.8,198.7,52.8z"/>
	<path class="st0" d="M298.3,330.8c-3.8,0-6.9-3-7-6.8l-1.7-56.8v-0.6c0.4-7.7-3.8-25-16.8-38.8c-12.2-12.9-29.1-19.5-50.1-19.5
		c-3.9,0-7-3.1-7-7s3.1-7,7-7c24.7,0,45.5,8.2,60.3,23.9c16,16.9,21.1,38.3,20.6,48.8l1.7,56.5c0.1,3.9-2.9,7.1-6.8,7.2L298.3,330.8
		z"/>
	<path class="st0" d="M94.3,326.6c-3.9,0-7-3.1-7-7v-45.3c0-42.6,40.1-80,85.8-80c3.9,0,7,3.1,7,7s-3.1,7-7,7
		c-38.2,0-71.8,30.8-71.8,66v45.3C101.3,323.4,98.1,326.6,94.3,326.6L94.3,326.6z"/>
	<path class="st0" d="M153.4,261.6c-3.9,0-7-3.1-7-7v-0.2l1.3-49.2c0.1-3.8,3.2-6.8,7-6.8h0.2c3.9,0.1,6.9,3.3,6.8,7.2l-0.9,36.1
		l35.2-22.2c2.2-1.4,5-1.4,7.3-0.1l34.1,20l1-32.9c0.1-3.9,3.3-6.9,7.2-6.8c3.9,0.1,6.9,3.3,6.8,7.2l-1.3,44.7
		c-0.1,3.9-3.3,6.9-7.2,6.8c-1.2,0-2.3-0.4-3.3-1l-40.6-23.9l-42.7,27C156.1,261.2,154.8,261.6,153.4,261.6z"/>
	<path class="st0" d="M225.5,330.8c-3.3,0-6.2-2.4-6.9-5.7L204.8,254c-0.3-1.8,0-3.6,1-5.1l7.1-11c2.1-3.2,6.5-4.1,9.7-2
		c3.2,2.1,4.1,6.4,2,9.6l-5.6,8.6l13.3,68.4c0.7,3.8-1.7,7.5-5.5,8.2l0,0C226.4,330.7,226,330.8,225.5,330.8z"/>
	<path class="st0" d="M173.1,331.4c-0.6,0-1.2-0.1-1.7-0.2c-3.7-1-6-4.8-5.1-8.5c0,0,0,0,0,0l0,0l17.2-67.9l-5.2-9.9
		c-1.7-3.5-0.3-7.7,3.2-9.4c3.3-1.7,7.4-0.4,9.2,2.9l6.5,12.3c0.8,1.5,1,3.3,0.6,5l-17.9,70.5C179.1,329.2,176.3,331.4,173.1,331.4z
		"/>
	<path class="st0" d="M133.5,150.7h-1.2c-22,0-39.8-17.8-39.8-39.8s17.8-39.8,39.8-39.8h1.2c9.3,0,16.9,7.6,16.9,16.9v45.8
		C150.4,143.2,142.8,150.7,133.5,150.7z M132.3,85.1c-14.3,0-25.8,11.6-25.8,25.8s11.6,25.8,25.8,25.8h1.2c1.6,0,2.9-1.3,2.9-2.9V88
		c0-1.6-1.3-2.9-2.9-2.9l0,0H132.3z"/>
	<path class="st0" d="M265.1,150.7H264c-9.3,0-16.9-7.6-16.9-16.9V88c0-9.3,7.6-16.9,16.9-16.9h1.2c22,0,39.8,17.8,39.8,39.8
		S287.1,150.7,265.1,150.7L265.1,150.7L265.1,150.7L265.1,150.7z M264,85.1c-1.6,0-2.9,1.3-2.9,2.9v0l0,0v45.8
		c0,1.6,1.3,2.9,2.9,2.9h1.2c14.3,0,25.8-11.5,25.8-25.8c0-14.3-11.5-25.8-25.8-25.8c0,0,0,0,0,0H264z"/>
	<path class="st0" d="M265.1,85.1c-0.2,0-0.5,0-0.7,0c-3.8-0.4-6.7-3.8-6.3-7.6c0,0,0,0,0,0l0,0l0.4-4.1
		c-0.1-32.9-26.9-59.6-59.8-59.5c-32.9,0.1-59.6,26.9-59.5,59.8v4.5c0,3.9-3.1,7-7,7s-7-3.1-7-7v-4.5c0-40.7,33-73.6,73.6-73.6
		s73.6,33,73.6,73.6v0.7l-0.4,4.5C271.8,82.4,268.8,85.1,265.1,85.1z"/>
	<path class="st0" d="M259.5,170.1h-54.3c-3.9,0-7-3.1-7-7s3.1-7,7-7h54.3c3.6,0,6.6-3,6.6-6.6v-6.8c0-3.9,3.1-7,7-7s7,3.1,7,7v6.8
		C280.1,160.9,270.9,170.1,259.5,170.1z"/>
	<path class="st0" d="M195.8,138.4c-3.9,0-7-3.1-7-7v-20.5c0-3.9,3.1-7,7-7s7,3.1,7,7v20.5C202.8,135.2,199.6,138.4,195.8,138.4z"/>
</g>
</svg>
