<?xml version="1.0" encoding="utf-8"?>
<!-- Generator: Adobe Illustrator 24.3.0, SVG Export Plug-In . SVG Version: 6.00 Build 0)  -->
<svg version="1.1" id="Layer_1" xmlns="http://www.w3.org/2000/svg" xmlns:xlink="http://www.w3.org/1999/xlink" x="0px" y="0px"
	 viewBox="0 0 390.1 331.6" style="enable-background:new 0 0 390.1 331.6;" xml:space="preserve">
<style type="text/css">
	.st0{fill:none;}
	.st1{fill:#111111;}
</style>
<polygon class="st0" points="255.8,177.1 255.8,177.1 255.8,177.1 "/>
<path class="st0" d="M14,250h260.8v-21.5c-1.9-0.5-3.8-0.8-5.8-1c-4.7-0.5-10-1.1-12.9-5.1s-1.8-9.1-0.9-13.7
	c0.6-2.9,1.2-5.9,0.6-7.5s-2.8-3.6-4.8-5.4c-3.5-3.2-7.5-6.9-7.5-11.9s4-8.7,7.5-11.9l0,0c2-1.8,4.3-3.9,4.8-5.4s0-4.7-0.6-7.5
	c-0.9-4.6-2-9.8,0.9-13.7s8.2-4.6,12.9-5.1c2.9-0.3,5.9-0.7,7.3-1.7s2.6-3.7,3.8-6.3c2-4.3,4.2-9.2,8.9-10.7c4.5-1.5,8.9,1,13.2,3.4
	c2.6,1.5,5.3,3,7.1,3s4.5-1.5,7.1-3c4.2-2.4,8.6-4.9,13.2-3.4c4.7,1.5,6.9,6.4,8.9,10.7c1.2,2.6,2.4,5.3,3.8,6.3
	c1.4,1,4.4,1.4,7.3,1.7c4.7,0.5,10,1.1,12.9,5.1s1.8,9.1,0.9,13.7c-0.6,2.9-1.2,5.9-0.6,7.5s2.8,3.6,4.8,5.4
	c3.5,3.2,7.5,6.9,7.5,11.9s-4,8.7-7.5,11.9c-2,1.8-4.3,3.9-4.8,5.4s0,4.7,0.6,7.5c0.9,4.6,2,9.8-0.9,13.7s-8.2,4.6-12.9,5.1
	c-0.7,0.1-1.5,0.2-2.2,0.3V250h28.8V14H14V250z M88.1,60.8h193.7c3.9,0,7,3.1,7,7s-3.1,7-7,7H88.1c-3.9,0-7-3.1-7-7
	S84.2,60.8,88.1,60.8z M88.1,110.4H203c3.9,0,7,3.1,7,7s-3.1,7-7,7H88.1c-3.9,0-7-3.1-7-7S84.2,110.4,88.1,110.4z M88.1,171.2h89.2
	c3.9,0,7,3.1,7,7s-3.1,7-7,7l0,0H88.1c-3.9,0-7-3.1-7-7S84.2,171.2,88.1,171.2z"/>
<path class="st1" d="M383.1,0H7C3.1,0,0,3.1,0,7v250c0,3.9,3.1,7,7,7h267.8v60.6c0,3.9,3.1,7,6.9,7.1c1.9,0,3.7-0.7,5-2.1l26-26
	l22.7,22.7c2.7,2.8,7.1,2.8,9.9,0.1c1.4-1.3,2.1-3.2,2.1-5.1v-57.2h35.8c3.9,0,7-3.1,7-7V7.1C390.1,3.2,387,0.1,383.1,0L383.1,0z
	 M255.8,177.1L255.8,177.1l4.7,5.2c3.1-2.8,7-6.4,8.6-11.5s0.6-10.4-0.2-14.6c-0.1-0.5-0.2-1.2-0.4-1.9c0.7-0.1,1.4-0.2,2-0.2
	c4.3-0.5,9.5-1.1,13.9-4.3s6.5-8,8.3-11.9c0.2-0.5,0.5-1.2,0.9-1.8l1.6,0.9c3.8,2.1,8.5,4.8,14,4.8s10.2-2.6,14-4.8l1.6-0.9
	c0.3,0.7,0.6,1.3,0.9,1.9c1.8,3.9,4,8.7,8.3,11.8s9.7,3.8,13.9,4.3c0.5,0.1,1.3,0.1,2,0.2c-0.1,0.7-0.3,1.4-0.4,1.9
	c-0.9,4.2-1.9,9.5-0.2,14.6s5.5,8.6,8.6,11.5c0.5,0.4,1.1,1,1.7,1.6c-0.6,0.6-1.2,1.2-1.7,1.6c-3.1,2.9-7,6.4-8.6,11.5
	s-0.6,10.4,0.2,14.6c0.1,0.5,0.2,1.2,0.4,1.9c-0.7,0.1-1.5,0.2-2,0.2c-4.2,0.5-9.5,1.1-13.9,4.3s-6.5,8-8.3,11.9
	c-0.2,0.5-0.5,1.2-0.9,1.8l-1.6-0.9c-3.8-2.1-8.5-4.8-14-4.8s-10.2,2.6-14,4.8l-1.6,0.9c-0.3-0.7-0.6-1.4-0.9-1.9
	c-1.8-3.9-3.9-8.7-8.3-11.9s-9.7-3.8-13.9-4.3c-0.5-0.1-1.3-0.1-2-0.2c0.1-0.7,0.3-1.4,0.4-1.9c0.9-4.2,1.9-9.5,0.2-14.6
	s-5.5-8.6-8.6-11.5c-0.5-0.4-1.1-1-1.7-1.6c0.6-0.6,1.2-1.2,1.7-1.6L255.8,177.1z M317.7,288.7c-2.7-2.7-7.2-2.7-9.9,0c0,0,0,0,0,0
	l0,0l-19,19v-61.4l0.2,0.1c4.6,1.5,8.9-1,13.2-3.4c2.6-1.5,5.3-3,7.1-3s4.5,1.5,7.1,3c3.3,1.9,6.8,3.8,10.3,3.8c1,0,1.9-0.2,2.9-0.5
	c1.4-0.5,2.7-1.3,3.8-2.3v60.3L317.7,288.7z M376.1,250h-28.8v-22.2c0.7-0.1,1.5-0.2,2.2-0.3c4.7-0.5,10-1.1,12.9-5.1
	s1.8-9.1,0.9-13.7c-0.6-2.9-1.2-5.9-0.6-7.5s2.8-3.6,4.8-5.4c3.5-3.2,7.5-6.9,7.5-11.9s-4-8.7-7.5-11.9c-2-1.8-4.3-3.9-4.8-5.4
	s0-4.7,0.6-7.5c0.9-4.6,2-9.8-0.9-13.7s-8.2-4.6-12.9-5.1c-2.9-0.3-5.9-0.7-7.3-1.7s-2.6-3.7-3.8-6.3c-2-4.3-4.2-9.2-8.9-10.7
	c-4.6-1.5-8.9,1-13.2,3.4c-2.6,1.5-5.3,3-7.1,3s-4.5-1.5-7.1-3c-4.2-2.4-8.6-4.9-13.2-3.4c-4.7,1.5-6.9,6.4-8.9,10.7
	c-1.2,2.6-2.4,5.3-3.8,6.3c-1.4,1-4.4,1.4-7.3,1.7c-4.7,0.5-10,1.1-12.9,5.1s-1.8,9.1-0.9,13.7c0.6,2.9,1.2,5.9,0.6,7.5
	s-2.7,3.6-4.7,5.4l0,0c-3.5,3.2-7.5,6.9-7.5,11.9s4,8.7,7.5,11.9c2,1.8,4.2,3.9,4.8,5.4s0,4.7-0.6,7.5c-0.9,4.6-2,9.8,0.9,13.7
	s8.2,4.6,12.9,5.1c1.9,0.2,3.9,0.5,5.8,1V250H14V14h362.1V250z"/>
<g>
	<path class="st1" d="M88.1,74.8h193.7c3.9,0,7-3.1,7-7s-3.1-7-7-7H88.1c-3.9,0-7,3.1-7,7S84.2,74.8,88.1,74.8z"/>
	<path class="st1" d="M88.1,124.4H203c3.9,0,7-3.1,7-7s-3.1-7-7-7H88.1c-3.9,0-7,3.1-7,7S84.2,124.4,88.1,124.4z"/>
	<path class="st1" d="M88.1,185.2h89.2c3.9,0,7-3.1,7-7s-3.1-7-7-7l0,0H88.1c-3.9,0-7,3.1-7,7S84.2,185.2,88.1,185.2z"/>
</g>
</svg>
