<?xml version="1.0" encoding="utf-8"?>
<!-- Generator: Adobe Illustrator 24.3.0, SVG Export Plug-In . SVG Version: 6.00 Build 0)  -->
<svg version="1.1" id="Capa_1" xmlns="http://www.w3.org/2000/svg" xmlns:xlink="http://www.w3.org/1999/xlink" x="0px" y="0px"
	 viewBox="0 0 453.7 374.2" style="enable-background:new 0 0 453.7 374.2;" xml:space="preserve">
<style type="text/css">
	.st0{fill:#111111;}
</style>
<g id="Layer_3">
	<path class="st0" d="M402.1,325.5H77.3c-3.9,0-7-3.1-7-7v-62.4c0-3.4,2.4-6.3,5.7-6.9c1-0.2,24.3-4.4,56.6-1.3
		c28.8,2.8,70.1,12.1,106.3,40.6c14.9-9.4,30.7-17.4,47.2-23.9c28.6-11.3,72.1-22.7,117.4-13.4c3.3,0.7,5.6,3.5,5.6,6.9v60.4
		C409.1,322.3,406,325.5,402.1,325.5L402.1,325.5z M84.3,311.5h310.8v-47.6c-78.4-13-151.8,38.5-152.5,39c-2.6,1.9-6.1,1.7-8.6-0.3
		c-34.2-28.7-74.5-38-102.3-40.7c-15.8-1.6-31.7-1.5-47.4,0.3L84.3,311.5z"/>
	<path class="st0" d="M416.4,374.2H61.3c-3.9,0-7-3.1-7-7v-44.6c0-3.9,3.1-7,7-7h355.1c3.9,0,7,3.1,7,7v44.6
		C423.4,371.1,420.2,374.2,416.4,374.2z M68.3,360.2h341.1v-30.6H68.3L68.3,360.2z"/>
	<path class="st0" d="M310.7,270.6c-3.9,0-7-3.1-7-7v-38.1c0-1,0.2-2.1,0.7-3l13.9-29.2c6.7-14.1,10.3-29.4,10.6-45l0.7-34.8v-0.3
		l1.3-77.4c0.1-8.4-6.7-15.3-15.1-15.3c-8.2-0.1-14.9,6.3-15.3,14.5c-0.1,3.9-3.3,6.9-7.2,6.8c-3.9-0.1-6.9-3.3-6.8-7.2l0.1-4
		c0.1-8.4-6.6-15.4-15-15.5c-7.4-0.1-13.8,5.1-15.2,12.4c-0.7,3.8-4.3,6.3-8.1,5.6c-3-0.6-5.3-3-5.7-6c-1.1-7.4-7.4-12.8-14.8-12.9
		h-0.3c-8.4,0-12.5,6.7-13.4,12.5c-0.6,3.8-4.2,6.4-8.1,5.8c-3.2-0.5-5.6-3.2-5.8-6.4l-0.2-2.5c-6.4-8.6-6.8-9.2-15-9.3
		c-3.6,0-7.4,2-10.4,5.6c-3.1,3.7-5,8.3-5.2,13.1L168,89.6c0,0.2,0,0.5,0,0.7l-1.4,11.3c-0.5,3.8-4,6.5-7.9,6
		c-3.3-0.4-5.9-3.2-6.1-6.6h-43.3c-1.6,9.9,0.4,15.8,12.6,25.5c17.7,14.1,33.4,37.9,34.1,38.9c0.2,0.4,0.5,0.8,0.6,1.2
		c6.8,16.5,16.6,38,23.7,53.1c0.4,0.9,0.7,2,0.7,3v39c0,3.9-3.1,7-7,7s-7-3.1-7-7v-37.5c-7-15-16.4-35.5-23.1-51.7
		c-2.4-3.5-16.2-23.5-30.8-35.2c-19-15.2-20.4-27.1-16.4-45c0.7-3.2,3.6-5.5,6.8-5.5h50.5l1.1-54.6c0.3-8,3.3-15.7,8.5-21.9
		C169.4,3.7,177.2-0.1,185,0c11.5,0.2,16.3,3.1,21.6,9.4c5.2-6.2,13-9.6,21.1-9.4c8.4,0.2,16.3,3.9,21.8,10.3
		c11-11.9,29.5-12.7,41.4-1.7c1.8,1.6,3.3,3.4,4.6,5.4c11.7-11.1,30.2-10.5,41.2,1.2c5.3,5.6,8.1,13,8,20.7l-1.3,77
		c0,0.1,0,0.2,0,0.4l-0.7,35.2c-0.3,17.6-4.4,34.9-11.9,50.8L317.7,227v36.5C317.7,267.4,314.5,270.5,310.7,270.6L310.7,270.6z"/>
	<path class="st0" d="M101.8,101H61.3c-3.9,0-7-3.1-7-7V41c0-3.9,3.1-7,7-7h97.4c3.9,0,7,3.1,7,7s-3.1,7-7,7H68.3v39h33.5
		c3.9,0,7,3.1,7,7S105.7,101,101.8,101z"/>
	<path class="st0" d="M397.2,101h-59.5c-3.9,0-7-3.1-7-7s3.1-7,7-7h52.5V48h-52.5c-3.9,0-7-3.1-7-7s3.1-7,7-7h59.5c3.9,0,7,3.1,7,7
		v53C404.2,97.9,401.1,101,397.2,101z"/>
	<path class="st0" d="M61.3,101c-1.1,0-2.1-0.2-3.1-0.7L3.9,73.8C0.5,72.2-1,68,0.7,64.5c0.7-1.4,1.8-2.5,3.2-3.2l54.3-26.5
		c3.4-1.7,7.7-0.4,9.4,3.1c1.7,3.4,0.4,7.7-3.1,9.4l-0.2,0.1L22.9,67.5l41.4,20.2c3.5,1.7,4.9,5.9,3.2,9.4
		C66.4,99.5,63.9,101,61.3,101z"/>
	<path class="st0" d="M446.7,101h-49.5c-3.9,0-7-3.1-7-7V41c0-3.9,3.1-7,7-7h49.5c3.9,0,7,3.1,7,7v53
		C453.7,97.9,450.5,101,446.7,101z M404.2,87h35.5V48h-35.5L404.2,87z"/>
</g>
</svg>
