<?xml version="1.0" encoding="utf-8"?>
<!-- Generator: Adobe Illustrator 24.3.0, SVG Export Plug-In . SVG Version: 6.00 Build 0)  -->
<svg version="1.1" id="Capa_1" xmlns="http://www.w3.org/2000/svg" xmlns:xlink="http://www.w3.org/1999/xlink" x="0px" y="0px"
	 viewBox="0 0 246.1 417.2" style="enable-background:new 0 0 246.1 417.2;" xml:space="preserve">
<style type="text/css">
	.st0{fill:#111111;}
</style>
<path class="st0" d="M172,280.8H68.4c-3.9,0-7-3.1-7-7v-82.2c0-3.9,3.1-7,7-7l0,0H172c3.9,0,7,3.1,7,7l0,0l0,0v82.2
	C179,277.7,175.9,280.8,172,280.8L172,280.8z M75.4,266.8H165v-68.2H75.4L75.4,266.8z"/>
<path class="st0" d="M96,193.6c-3,0-5.7-1.9-6.6-4.8l-11.1-33.5c-6.2-18.6,3.9-38.7,22.5-44.9s38.7,3.9,44.9,22.5l2,5.9
	c1.2,3.7-0.8,7.6-4.5,8.8c-3.6,1.2-7.5-0.8-8.8-4.4l-2-5.9c-3.9-11.2-16.1-17.2-27.4-13.4C94,127.8,88,139.7,91.5,150.9l11.1,33.5
	c1.2,3.7-0.8,7.6-4.4,8.8c0,0,0,0,0,0C97.5,193.5,96.7,193.6,96,193.6z"/>
<path class="st0" d="M170.2,145.4c-4.5,0-8.2-3.7-8.2-8.2c0-2,0.7-3.9,2.1-5.4l12.3-13.9c3.1-3.3,8.3-3.5,11.6-0.4
	c3.2,3,3.5,8,0.7,11.3l-12.4,13.8C174.8,144.4,172.6,145.4,170.2,145.4z"/>
<path class="st0" d="M198.6,184.4c-0.6,0-1.2-0.1-1.8-0.2l-16-4.3c-3.7-1-5.9-4.9-4.9-8.6c1-3.7,4.9-5.9,8.6-4.9l16,4.3
	c3.7,1,5.9,4.8,4.9,8.6C204.6,182.2,201.8,184.4,198.6,184.4L198.6,184.4z"/>
<path class="st0" d="M181.9,158.1c-3.9,0-7-3.1-7-7c0-3,1.9-5.6,4.6-6.6l14.6-5.2c3.7-1.3,7.6,0.7,8.9,4.3c1.2,3.5-0.5,7.3-3.9,8.8
	l-0.3,0.1l-14.6,5.3C183.5,157.9,182.7,158.1,181.9,158.1z"/>
<g id="Layer_11">
	<path class="st0" d="M14,375.3v-7.2h218v7.2c0,15.4-12.5,27.9-27.9,27.9H41.9C26.5,403.1,14,390.7,14,375.3z M163.3,15
		c-3,8.8-11.3,14.7-20.6,14.7H98.8c-9.3,0-17.5-5.9-20.6-14.7L163.3,15z M246,360.3V41.9C246,18.8,227.2,0,204,0H41.9
		C18.8,0.1,0,18.8,0,41.9v333.3c0,23.1,18.8,41.9,41.9,41.9H204c23.1,0,41.9-18.8,42-41.9V362C246.1,361.4,246.1,360.8,246,360.3
		L246,360.3z M232,210.3c-0.2-0.1-0.2,15.3,0,15.3v45.1c-0.2,0.1-0.2,15.5,0,15.4v68.1H14L13.5,320L14,41.9
		C14,26.5,26.5,14.1,41.9,14h21.7c2.9,17.2,17.8,29.7,35.2,29.8h43.9c17.4,0,32.3-12.6,35.3-29.8h26.1c15.4,0.1,27.9,12.5,27.9,27.9
		V210.3z"/>
</g>
</svg>
